<svg xmlns="http://www.w3.org/2000/svg" viewBox="0 0 24 24" role="img" aria-labelledby="title">
  <title id="title">LinkedIn icon</title>
  <path fill="#0A66C2" d="M22.225 0H1.771C.792 0 0 .774 0 1.729v20.542C0 23.226.792 24 1.771 24h20.454C23.2 24 24 23.226 24 22.271V1.729C24 .774 23.2 0 22.225 0z" />
  <path fill="#fff" d="M5.337 7.433a2.062 2.062 0 1 1 0-4.124 2.062 2.062 0 0 1 0 4.124M7.119 20.452H3.554V9h3.565z" />
  <path fill="#fff" d="M20.452 20.452h-3.554V14.83c0-1.344-.027-3.072-1.872-3.072-1.873 0-2.16 1.462-2.16 2.972v5.722H9.307V9h3.414v1.561h.049c.476-.9 1.638-1.848 3.366-1.848 3.6 0 4.267 2.37 4.267 5.456v6.283z" />
</svg>